<?xml version="1.0" standalone="no"?>
<!DOCTYPE svg PUBLIC "-//W3C//DTD SVG 1.1//EN" "http://www.w3.org/Graphics/SVG/1.1/DTD/svg11.dtd" >
<!--
2013-9-30: Created.
-->
<svg>
<metadata>
Created by iconfont
</metadata>
<defs>

<font id="iconfont" horiz-adv-x="1024" >
  <font-face
    font-family="iconfont"
    font-weight="500"
    font-stretch="normal"
    units-per-em="1024"
    ascent="896"
    descent="-128"
  />
    <missing-glyph />
    
    <glyph glyph-name="rizhijilu" unicode="&#58910;" d="M768 800a96 96 0 0 0 95.552-86.784L864 704v-256a32 32 0 0 0-63.488-5.76L800 448V704a32 32 0 0 1-26.24 31.488L768 736H256a32 32 0 0 1-31.488-26.24L224 704v-640a32 32 0 0 1 26.24-31.488L256 32h192a32 32 0 0 0 5.76-63.488L448-32H256a96 96 0 0 0-95.552 86.784L160 64V704a96 96 0 0 0 86.784 95.552L256 800h512z m-64-384a224 224 0 1 0 0-448 224 224 0 0 0 0 448z m0-64a160 160 0 1 1 0-320 160 160 0 0 1 0 320z m-21.504-73.6a32 32 0 0 0 31.488-26.24l0.512-5.76-0.064-51.264h34.432a32 32 0 0 0 31.488-26.24l0.512-5.76a32 32 0 0 0-26.24-31.552l-5.76-0.512h-98.368v115.392a32 32 0 0 0 32 32zM416 196.992a32 32 0 0 0 5.76-63.488l-5.76-0.512h-128a32 32 0 0 0-5.76 63.424l5.76 0.576h128zM440.64 352a32 32 0 0 0 5.76-63.488l-5.76-0.512H288a32 32 0 0 0-5.76 63.488L288 352h152.64z m168.96 155.072a32 32 0 0 0 5.76-63.424l-5.76-0.576H288a32 32 0 0 0-5.76 63.488l5.76 0.512h321.6z m72.896 152.32a32 32 0 0 0 5.76-63.488l-5.76-0.512H288a32 32 0 0 0-5.76 63.488l5.76 0.512h394.496z"  horiz-adv-x="1024" />

    
    <glyph glyph-name="user" unicode="&#58896;" d="M906.24 174.59199999999998H580.608c-19.968 0-35.84-15.872-35.84-35.84s15.872-35.84 35.84-35.84H906.24c19.968 0 35.84 15.872 35.84 35.84s-15.872 35.84-35.84 35.84zM615.424 318.976c0-19.968 15.872-35.84 35.84-35.84H906.24c19.968 0 35.84 15.872 35.84 35.84 0 19.456-15.872 35.84-35.84 35.84H651.264c-19.968 0-35.84-15.872-35.84-35.84zM906.24-5.1200000000000045H651.264c-19.968 0-35.84-15.872-35.84-35.84s15.872-35.84 35.84-35.84H906.24c19.968 0 35.84 15.872 35.84 35.84s-15.872 35.84-35.84 35.84zM142.848-16.384000000000015v51.712c0 176.128 136.192 321.024 309.248 337.408h0.512a340.032 340.032 0 0 0 32.256 1.536h4.608c38.4 3.072 96.256 11.776 126.464 38.912l14.848 11.776c57.344 44.032 91.136 112.64 91.136 184.832 0 130.048-106.496 235.52-237.568 235.52S247.296 739.328 247.296 609.28c0-72.192 33.28-139.776 91.136-184.832l14.848-11.776-17.408-7.168C181.248 345.08799999999997 81.92 199.67999999999995 81.92 35.327999999999975v-81.92c0-16.896 13.824-30.208 30.72-30.208h446.976c-14.848 18.944-27.136 38.912-36.864 60.416H142.848z m166.4 627.712c0 95.744 79.36 173.568 176.64 173.568s176.64-77.824 176.64-173.568-79.36-173.568-176.64-173.568c-97.792 0-176.64 77.824-176.64 173.568z"  horiz-adv-x="1024" />

    
    <glyph glyph-name="gerenshezhi" unicode="&#58931;" d="M611.875721 296.65041900000006a339.086884 339.086884 0 0 1-164.554419 42.484093c-7.310884 0-13.764465-0.381023-26.195349-1.26214-22.242233-1.690791-44.27014-5.572465-65.726511-11.597395C213.801674 286.60092999999995 108.591628 149.146791 101.376-5.9058599999999615l-0.190512-5.23907c-0.142884-4.88186-0.214326-9.763721-0.190511-14.597954 0-5.334326 0.261953-9.716093 0.642976-12.573767l2.095628-17.241302H36.363907v39.316837c0 164.816372 93.898419 320.369116 235.996279 383.666604 10.525767 4.810419 21.289674 9.120744 32.220279 12.883349a279.242419 279.242419 0 0 0-131.072 237.258419A279.337674 279.337674 0 0 0 345.778605 875.948651 268.026047 268.026047 0 0 0 447.321302 896c150.980465 0 273.860465-124.904186 273.860465-278.480372a279.575814 279.575814 0 0 0-132.286511-238.139535A407.028093 407.028093 0 0 0 689.175814 324.46511599999997a157.314977 157.314977 0 0 1-77.276279-27.862325z m-213.658791 114.426046c16.62214-4.048372 32.982326-6.144 49.104372-6.144 115.330977 0 209.205581 95.398698 209.205582 212.658605 0 117.212279-93.874605 212.634791-209.205582 212.63479a205.752558 205.752558 0 0 1-49.104372-6.167813 197.822512 197.822512 0 0 1-40.340837-14.597954 212.968186 212.968186 0 0 1-119.784186-191.892837 212.896744 212.896744 0 0 1 119.712744-191.892837c12.930977-6.286884 26.433488-11.168744 40.340837-14.597954h0.071442z m526.597954-251.141953a104.543256 104.543256 0 0 0-112.663814 63.630883h-29.053023a104.543256 104.543256 0 0 0-112.663814-63.630883l-14.407442-24.552186a101.637953 101.637953 0 0 0 0-128.142884l14.407442-24.552186a104.543256 104.543256 0 0 0 112.64-63.630884h29.053023a104.543256 104.543256 0 0 0 112.687628 63.630884l14.383628 24.528372a101.637953 101.637953 0 0 0 0 128.166698l-14.383628 24.528372z m-172.413024 101.685581h90.445396c0-35.768558 29.767442-64.773953 66.44093-64.773953 12.026047 0 23.266233 3.095814 32.958512 8.573023l45.675162-77.895442a64.464372 64.464372 0 0 1-33.43479-56.20093c0-24.123535 13.454884-45.056 33.43479-56.200931l-45.675162-77.919255c-10.073302 5.620093-21.432558 8.573023-32.982326 8.573023-36.673488 0-66.417116-29.005395-66.417116-64.773954h-90.469209c0 35.768558-29.743628 64.773953-66.417117 64.773954-12.04986 0-23.266233-3.119628-32.982325-8.573023l-45.675163 77.895442a64.464372 64.464372 0 0 1 33.434791 56.20093 64.369116 64.369116 0 0 1-33.434791 56.20093l45.675163 77.919256c9.716093-5.477209 20.956279-8.573023 32.982325-8.573023 36.673488 0 66.44093 29.005395 66.44093 64.773953zM776.43014 71.17990699999996c0-11.597395 9.525581-21.051535 21.003907-21.051535a21.051535 21.051535 0 0 1 0 42.10307 21.051535 21.051535 0 0 1-20.95628-21.051535h-0.047627z m-42.245954 0a63.345116 63.345116 0 1 0 126.690233-0.071442 63.345116 63.345116 0 0 0-126.690233 0.071442z"  horiz-adv-x="1024" />

    
    <glyph glyph-name="anquanshezhi1" unicode="&#58890;" d="M585.96-8.32l12.544 12.532c5.736 5.71 7.28 16.292 3.473 23.436l-10.195 24.663a17.213 17.213 0 0 1-1.923 4.13c-33.389-29.156-61.107-46.592-75.574-52.466-42.752 16.048-185.201 117.83-269.593 330.643-40.741 102.73-51.186 218.806-52.766 298.09-0.155 7.745 5.034 14.239 10.27 16.653 145.62 67.51 280.077 118.521 312.598 118.657 32.664-0.115 166.55-50.947 311.397-118.244 3.662-1.91 10.206-11.885 10.108-16.39-1.628-79.838-12.156-196.49-52.856-298.81l-0.006 0.003a758.514 758.514 0 0 0-24.204-54.486 14.576 14.576 0 0 0 2.038-7.41v-17.712c0-8.09 6.341-16.716 14.063-19.105l21.253-8.758a853.043 853.043 0 0 1 40.512 87.15c45.523 114.379 57.245 243.456 59.06 331.61 0.43 21.383-16.096 47.972-35.352 56.912l-0.006-0.007c-103.174 47.93-292.57 129.1-348.027 129.29-55.332-0.211-245.55-81.625-349.224-129.706-21.76-10.083-36.076-33.082-35.597-57.2 1.75-87.55 13.378-216.007 58.916-330.823 98.674-248.82 271.811-365.529 320.365-377.78 1.709-0.417 3.46-0.63 5.204-0.63 1.833 0 3.674 0.213 5.44 0.714 14.96 3.95 38.272 16.233 66.156 36.607-3.673 5.682-3.034 13.432 1.926 18.437zM291.261 429.275h447.724v-63.96H291.261v63.96zM483.143 621.157h63.961v-447.724h-63.96V621.157zM893.1 109.003c0 2.75-1.01 5.614-3.145 7.691-2.079 2.135-4.946 3.262-7.697 3.262h-16.516c-6.852 0-14.21 5.337-16.232 11.85l-8.591 20.95c-3.257 6.069-1.968 15.056 2.921 19.829l11.85 11.798c1.91 2.019 3.145 4.772 3.145 7.746 0 3.034-1.178 5.786-3.146 7.696l-20.052 19.885c-1.966 1.967-4.605 3.2-7.696 3.2-2.974 0-5.674-1.177-7.637-3.2l-11.853-11.738c-4.885-4.833-13.815-6.234-19.828-2.866l-20.951 8.536c-6.514 2.023-11.965 9.268-11.965 16.233V246.39c0 2.864-1.067 5.618-3.2 7.696-2.08 2.135-4.886 3.2-7.638 3.2h-28.252c-2.811 0-5.618-1.065-7.697-3.2-2.078-2.078-3.257-4.833-3.257-7.696v-16.57c0-6.964-5.335-14.211-11.964-16.233l-20.785-8.537c-6.007-3.428-14.993-1.966-19.767 2.863l-11.91 11.742c-1.91 1.967-4.606 3.202-7.64 3.202a10.92 10.92 0 0 1-7.753-3.202l-19.939-19.885c-1.906-1.91-3.2-4.661-3.2-7.695 0-2.974 1.238-5.73 3.2-7.753l11.853-11.793c4.83-4.773 6.124-13.705 2.923-19.829l-8.596-20.95c-2.078-6.513-9.325-11.966-16.177-11.966l-16.68 0.112c-2.755 0-5.507-1.124-7.64-3.256a10.857 10.857 0 0 1-3.258-7.693v-28.253c0-2.812 1.123-5.563 3.258-7.696 2.133-2.191 4.884-3.258 7.64-3.258h16.68c6.85 0 14.098-5.279 16.12-11.909l8.653-20.84c3.257-6.119 1.906-15.11-2.923-19.884l-11.853-11.738c-1.906-2.024-3.2-4.773-3.2-7.751 0-3.034 1.238-5.73 3.2-7.753l19.94-19.884c2.022-1.907 4.778-3.144 7.752-3.144 3.034 0 5.785 1.18 7.64 3.144l11.85 11.854c4.834 4.774 13.763 6.123 19.827 2.862l20.896-8.592c6.63-2.023 11.965-9.323 11.965-16.177v-16.567c0-2.921 1.178-5.674 3.257-7.809 2.077-2.076 4.89-3.143 7.696-3.143h28.254c2.75 0 5.558 1.067 7.636 3.143 2.138 2.135 3.206 4.887 3.206 7.81v16.566c0 6.853 5.446 14.154 11.96 16.177l20.952 8.592c6.068 3.317 14.944 1.912 19.828-2.862l11.798-11.854c2.023-1.907 4.662-3.257 7.692-3.257 2.979 0 5.73 1.177 7.696 3.257l20.052 19.884c1.91 2.024 3.144 4.719 3.144 7.753 0 2.978-1.177 5.728-3.144 7.75l-11.85 11.739c-4.889 4.83-6.123 13.764-2.922 19.885l8.596 20.84c2.019 6.63 9.377 11.908 16.233 11.908h16.567c2.75 0 5.617 1.067 7.696 3.258 2.135 2.134 3.146 4.884 3.146 7.696v28.309h-0.168z m-99.87-14.098c0-34.545-27.915-62.404-62.403-62.404s-62.458 27.86-62.458 62.404c0 34.488 27.914 62.457 62.402 62.457s62.459-27.969 62.459-62.457"  horiz-adv-x="1024" />

    
    <glyph glyph-name="shijian" unicode="&#58922;" d="M983.467 580.877a511.644 511.644 0 0 1-276.46 276.397 516.891 516.891 0 0 1-392.293 0A512.795 512.795 0 0 1 38.318 580.877a519.515 519.515 0 0 1 0-391.204 511.964 511.964 0 0 1 276.396-276.396 516.891 516.891 0 0 1 392.292 0 510.812 510.812 0 0 1 276.46 276.396 516.507 516.507 0 0 1 0 391.204zM731.58 278.82H493.07a36.157 36.157 0 0 0-22.847 8.063 29.758 29.758 0 0 0-15.103 27.582v351.08c0 41.277 64.636 41.277 64.636 0V350.11h211.76c18.943 0 35.71-16.703 35.71-35.71a35.197 35.197 0 0 0-35.645-35.581z"  horiz-adv-x="1024" />

    
    <glyph glyph-name="shengri" unicode="&#59365;" d="M882.799 172.146v-158.792H141.767V172.146c12.406 0 24.123 1.935 35.15 5.795 11.027 3.854 19.157 7.645 24.396 11.372 5.239 3.721 11.717 8.89 19.433 15.507 8.271 7.441 15.373 12.68 21.301 15.712 5.929 3.03 13.714 4.55 23.363 4.55 9.648 0 17.3-1.52 22.949-4.55 5.653-3.032 12.889-8.271 21.709-15.712 7.995-6.892 14.474-12.132 19.437-15.718 4.965-3.579 12.956-7.302 23.983-11.161 11.028-3.86 22.884-5.789 35.563-5.789 12.406 0 24.122 1.999 35.15 5.994 11.027 3.998 19.023 7.721 23.989 11.167 4.958 3.445 11.576 8.615 19.846 15.507 5.788 5.237 10.268 8.96 13.439 11.167 3.171 2.203 7.446 4.271 12.82 6.204 5.374 1.927 11.372 2.891 17.99 2.891 9.648 0 17.435-1.513 23.363-4.55 5.928-3.032 13.023-8.271 21.295-15.712 7.721-6.617 14.198-11.786 19.438-15.507 5.239-3.722 13.369-7.513 24.396-11.372 11.027-3.86 22.744-5.789 35.149-5.789 12.406 0 24.123 1.929 35.149 5.789 11.027 3.859 19.164 7.65 24.397 11.372 5.239 3.721 11.717 8.89 19.438 15.507 8.271 7.441 15.373 12.68 21.296 15.712 5.928 3.037 13.719 4.55 23.362 4.55 9.375 0 17.026-1.513 22.955-4.55 5.928-3.032 13.023-8.271 21.295-15.712 7.721-6.617 14.198-11.786 19.437-15.507 5.24-3.722 13.371-7.513 24.397-11.372 11.027-3.86 22.745-5.789 35.15-5.789l-0.003-0.006z m0 132.327v-79.392c-9.649 0-17.295 1.512-22.948 4.55-5.654 3.032-12.891 8.271-21.71 15.712-7.996 6.893-14.474 12.131-19.438 15.711-4.964 3.586-12.954 7.307-23.982 11.168-11.027 3.86-22.743 5.786-35.149 5.786-12.686 0-24.536-1.926-35.563-5.786-11.027-3.861-19.023-7.582-23.987-11.168-4.96-3.58-11.438-8.818-19.434-15.711-6.067-5.24-10.611-8.96-13.648-11.169-3.032-2.201-7.301-4.269-12.814-6.203-5.515-1.926-11.583-2.89-18.2-2.89-9.649 0-17.435 1.512-23.362 4.55-5.929 3.032-13.025 8.271-21.296 15.712-7.996 6.893-14.474 12.131-19.438 15.711-4.959 3.586-12.955 7.307-23.982 11.168-11.028 3.86-22.885 5.786-35.564 5.786-12.405 0-24.122-1.995-35.149-5.996-11.027-3.996-19.023-7.716-23.983-11.162-4.964-3.446-11.582-8.614-19.852-15.507-5.788-5.24-10.268-8.96-13.439-11.169-3.172-2.201-7.44-4.269-12.821-6.203-5.373-1.926-11.372-2.89-17.984-2.89-9.649 0-17.439 1.512-23.362 4.544-5.929 3.038-13.03 8.271-21.301 15.718-7.717 6.617-14.2 11.787-19.433 15.507-5.238 3.719-13.375 7.511-24.402 11.372-11.028 3.86-22.743 5.786-35.149 5.786-12.68 0-24.532-1.926-35.56-5.786-11.027-3.861-19.021-7.582-23.986-11.168-4.96-3.58-11.442-8.818-19.434-15.711-8.27-7.441-15.372-12.68-21.3-15.712-5.924-3.038-13.714-4.55-23.363-4.55v79.392c0 22.056 7.722 40.805 23.158 56.241 15.438 15.438 34.187 23.159 56.242 23.159h26.463V569.128h105.864v-185.255h105.856V569.128h105.864v-185.255h105.863V569.128h105.863v-185.255H803.4c22.055 0 40.803-7.722 56.24-23.159 15.438-15.437 23.159-34.186 23.159-56.241z m-529.31 357.29c0-21.231-4.959-37.562-14.889-49.003-9.923-11.443-22.604-17.166-38.041-17.166-14.612 0-27.089 5.169-37.428 15.507-10.338 10.338-15.507 22.813-15.507 37.427 0 7.997 1.314 15.021 3.93 21.091 2.618 6.062 5.858 10.752 9.72 14.058 3.86 3.306 8.131 7.167 12.82 11.577 4.684 4.416 8.959 8.755 12.815 13.031 3.861 4.269 7.102 10.407 9.719 18.397 2.622 7.996 3.93 17.23 3.93 27.709 10.479 0 21.915-10.199 34.321-30.6 12.407-20.4 18.61-41.077 18.61-62.028z m211.726 0c0-21.231-4.965-37.562-14.889-49.003-9.923-11.443-22.603-17.166-38.046-17.166-14.608 0-27.084 5.169-37.422 15.507-10.339 10.338-15.507 22.813-15.507 37.427 0 7.997 1.31 15.021 3.926 21.091 2.622 6.062 5.858 10.752 9.719 14.058 3.861 3.306 8.135 7.167 12.821 11.577 4.684 4.416 8.959 8.755 12.819 13.031 3.86 4.269 7.097 10.407 9.72 18.397 2.617 7.996 3.925 17.23 3.925 27.709 10.479 0 21.921-10.199 34.325-30.6 12.407-20.4 18.609-41.077 18.609-62.028z m211.721 0c0-21.231-4.959-37.562-14.883-49.003-9.929-11.443-22.608-17.166-38.046-17.166-14.613 0-27.084 5.169-37.422 15.507-10.338 10.338-15.508 22.813-15.508 37.427 0 7.997 1.31 15.021 3.926 21.091 2.622 6.062 5.858 10.752 9.719 14.058s8.137 7.167 12.82 11.577c4.685 4.416 8.96 8.755 12.82 13.031 3.86 4.269 7.097 10.407 9.72 18.397 2.617 7.996 3.925 17.23 3.925 27.709 10.479 0 21.921-10.199 34.326-30.6 12.404-20.401 18.608-41.078 18.608-62.029h-0.005z m0 0"  horiz-adv-x="1024" />

    
    <glyph glyph-name="youxiang" unicode="&#58888;" d="M512.0115125 331.93993688l436.68536719 363.81988968c-2.366715 0.4307475-4.490715 1.41791906-6.94473188 1.41791906L82.27471344 697.17774563c-2.40508969 0-4.54252031-0.97374-6.91019532-1.41791907L512.0115125 331.93993688 512.0115125 331.93993688zM980.82453687 658.1034375c0 4.09930031-1.12723594 7.89544688-2.36575593 11.62731656L668.90737719 411.73095844l310.01956687-310.06945313c0.79721906 3.12556125 1.89759375 6.13599937 1.89759375 9.51482907L980.82453687 658.1034375 980.82453687 658.1034375 980.82453687 658.1034375zM45.57863375 669.77104688c-1.20206531-3.75777187-2.40317063-7.50307313-2.40317063-11.66665032l0-546.91559156c0-3.41624344 1.17616219-6.41517094 1.94843907-9.53977219l310.11933937 310.09439625L45.57863375 669.77104688 45.57863375 669.77104688zM638.7147275 386.62669875L524.48785344 291.48608436999996c-3.58029281-3.04881281-8.00960906-4.51757719-12.4773-4.51757718-4.42835719 0-8.8826175 1.46876437-12.500325 4.51757718l-114.1261425 95.09072813L72.82416125 74.03895375000002c3.074715-0.81065062 6.12448781-1.9359675 9.45247125-1.9359675L941.76461937 72.10298624999996c3.39226031 0 6.44011406 1.11284531 9.57718688 1.9359675L638.7147275 386.62669875 638.7147275 386.62669875z"  horiz-adv-x="1024" />

    
    <glyph glyph-name="zhuangtai" unicode="&#59009;" d="M512 896c282.4704 0 512-229.5296 512-512s-229.5296-512-512-512S0 101.5296 0 384 229.5296 896 512 896z m-36.5568-231.6288v-414.464h73.1136V664.3712H475.4432z m0-487.6288v-73.1136h73.1136v73.1136H475.4432z"  horiz-adv-x="1024" />

    
    <glyph glyph-name="jiaose" unicode="&#58915;" d="M512 896a512 512 0 1 0 0-1024A512 512 0 0 0 512 896z m94.500571-627.565714s-66.706286-70.582857-95.012571-70.582857c-28.306286 0-94.939429 70.656-94.939429 70.656s-102.838857-15.652571-138.532571-39.277715c-35.620571-23.552-51.419429-148.626286-51.419429-148.626285h570.806858s-10.459429 120.905143-52.443429 148.626285c-35.693714 23.625143-138.459429 39.277714-138.459429 39.277715zM513.755429 681.252571c-80.091429 0-144.969143-84.626286-144.969143-189.001142s64.877714-189.001143 144.969143-189.001143c80.018286 0 144.896 84.626286 144.896 189.001143s-64.877714 189.001143-144.896 189.001142z"  horiz-adv-x="1024" />

    
    <glyph glyph-name="nicheng" unicode="&#59104;" d="M848.8 304.8c-44 46.4-102.4 80-174.4 100 73.6 48.8 116.8 130.4 116.8 218.4 0 144.8-117.6 262.4-262.4 262.4s-262.4-117.6-262.4-262.4c0-89.6 44.8-172 120-220-100-25.6-180.8-73.6-241.6-142.4-53.6-61.6-91.2-140.8-108-229.6-12.8-68-9.6-117.6-8.8-117.6 1.6-16.8 15.2-29.6 31.2-29.6 8.8 0 17.6 4 24 11.2 5.6 6.4 8 14.4 8 23.2 0 1.6-10.4 173.6 101.6 301.6 75.2 85.6 188.8 133.6 336.8 142.4h3.2c28.8 0 178.4-4.8 268.8-100 5.6-6.4 13.6-9.6 21.6-9.6 8.8 0 16.8 2.4 22.4 8.8 6.4 5.6 9.6 13.6 10.4 22.4 1.6 6.4-1.6 15.2-7.2 20.8z m-320 116c-111.2 0-202.4 91.2-202.4 202.4 0 112 91.2 202.4 202.4 202.4 112 0 202.4-91.2 202.4-202.4 0-52.8-20.8-104-57.6-141.6-36.8-37.6-86.4-60-139.2-60.8h-5.6zM964 80h-244.8c-16.8 0-31.2 13.6-31.2 31.2 0 16.8 13.6 31.2 31.2 31.2h244.8c16.8 0 31.2-13.6 31.2-31.2 0-16.8-14.4-31.2-31.2-31.2zM964-65.6h-244.8c-16.8 0-31.2 13.6-31.2 31.2 0 16.8 13.6 31.2 31.2 31.2h244.8c16.8 0 31.2-13.6 31.2-31.2s-14.4-31.2-31.2-31.2z"  horiz-adv-x="1024" />

    
    <glyph glyph-name="-tainjia" unicode="&#58887;" d="M512.277-58.412000000000035c-118.89 0-230.659 46.078-314.73 129.73S67.12 266.33399999999995 67.12 384.778s46.327 229.744 130.398 313.427 195.82 129.73 314.73 129.73 230.659-46.078 314.72-129.73S957.397 503.19 957.397 384.817 911.078 155.03999999999996 826.97 71.35799999999995s-195.8-129.77-314.692-129.77z m0 822.784c-101.972 0-197.809-39.494-269.865-111.222s-111.7-166.997-111.7-268.373 39.653-196.695 111.67-268.335S410.246 5.220000000000027 512.248 5.220000000000027s197.809 39.484 269.865 111.222 111.7 166.998 111.67 268.374c-0.03 101.375-39.654 196.665-111.67 268.303S614.22 764.3720000000001 512.277 764.3720000000001z m222.585-347.8H544.073V607.36c-0.76 17.561-15.613 31.18-33.173 30.419-16.495-0.714-29.704-13.924-30.419-30.419v-190.787H289.703c-17.56-0.761-31.179-15.614-30.419-33.174 0.715-16.494 13.924-29.703 30.42-30.418H480.48v-190.788c0.761-17.56 15.614-31.179 33.174-30.419 16.494 0.715 29.703 13.925 30.418 30.42V352.98h190.788c17.56-0.762 32.413 12.857 33.173 30.418 0.762 17.561-12.858 32.414-30.419 33.174a31.683 31.683 0 0 1-2.753 0z"  horiz-adv-x="1028" />

    
    <glyph glyph-name="chakanxiangqing" unicode="&#58886;" d="M247.5008 644.864h457.8816v-78.9504H247.5008V644.864z m0-152.9344h457.8816v-79.0016H247.5008V491.9296z m0-152.9344h157.5936v-78.9504H247.5008V338.94399999999996zM174.592 113.91999999999996V710.4c0 43.6736 34.816 80.64 79.5648 80.64h444.5696c43.1104 0 79.616-35.328 79.616-80.64v-292.5056h77.9264V717.1072c0 83.968-67.9424 152.9344-150.8864 152.9344H247.5008C164.5568 870.0416 96.6144 801.0752 96.6144 717.056v-609.9456c0-83.968 67.9424-152.8832 150.8864-152.8832h156.0064V33.27999999999997H252.416c-41.472 0-77.9264 35.2768-77.9264 80.64zM819.8144 41.57439999999997a189.184 189.184 0 0 1 31.5392 105.8816c0 105.8304-84.5824 193.28-190.7712 193.28s-189.1328-89.088-189.1328-194.9184c0-105.8816 84.6336-193.28 190.72-193.28 38.1952 0 74.7008 11.776 104.6016 32l107.8272-109.2608 53.0432 57.1392-107.8272 109.2096z m-159.232-8.3456a111.1552 111.1552 0 0 0-102.656 69.4784 113.664 113.664 0 0 0 24.064 122.6752 110.08 110.08 0 0 0 121.1392 24.4224 112.64 112.64 0 0 0 68.608-103.9872c1.5872-62.1568-49.7664-112.64-111.1552-112.64z"  horiz-adv-x="1024" />

    
    <glyph glyph-name="chushaixuanxiang" unicode="&#58880;" d="M512 275.456l253.33760002-253.33760001a76.6976 76.6976 0 1 1 108.54399997 108.54400002L620.6464 384l253.23520001 253.33760002a76.6976 76.6976 0 1 1-108.54400002 108.54399997L512 492.6464 258.66239998 745.88160001a76.6976 76.6976 0 1 1-108.54399997-108.54400002L403.3536 384 150.11839999 130.66239998000003a76.6976 76.6976 0 1 1 108.54400002-108.54399997L512 275.35360000000003z"  horiz-adv-x="1024" />

    
    <glyph glyph-name="gai" unicode="&#58882;" d="M512 896c282.7776 0 512-229.2224 512-512s-229.2224-512-512-512S0 101.2224 0 384 229.2224 896 512 896zM310.5792 129.68960000000004L463.7184 194.55999999999995a21.504 21.504 0 0 1 6.656 4.4544L728.576 457.216a47.0016 47.0016 0 0 1 0.1536 66.3552l-51.5584 51.5584a46.9504 46.9504 0 0 1-66.3552-0.1024l-258.2528-258.304a20.8384 20.8384 0 0 1-4.4544-6.656l-64.8704-153.088a20.5824 20.5824 0 0 1 4.4544-22.8352 20.5312 20.5312 0 0 1 22.8352-4.4544z m333.3632 412.16l0.1536 0.1536 51.5072-51.5072-0.1024-0.1536-40.3456-40.2944-51.456 51.456 40.2432 40.3456z m-254.6688-254.6688l181.248 181.3504 51.5072-51.5584-181.248-181.2992-89.344-37.888 37.888 89.3952z"  horiz-adv-x="1024" />

    
    <glyph glyph-name="URLguanli" unicode="&#59063;" d="M578.133 220.373c-3.306 3.307-8.746 3.307-12.053 0L442.133 96.427c-57.386-57.387-154.24-63.467-217.6 0-63.466 63.466-57.386 160.213 0 217.6L348.48 437.973c3.307 3.307 3.307 8.747 0 12.054l-42.453 42.453c-3.307 3.307-8.747 3.307-12.054 0L170.027 368.533c-90.24-90.24-90.24-236.266 0-326.4s236.266-90.24 326.4 0L620.373 166.08c3.307 3.307 3.307 8.747 0 12.053l-42.24 42.24z m275.84 505.6c-90.24 90.24-236.266 90.24-326.4 0L403.52 602.027c-3.307-3.307-3.307-8.747 0-12.054l42.347-42.346c3.306-3.307 8.746-3.307 12.053 0l123.947 123.946c57.386 57.387 154.24 63.467 217.6 0 63.466-63.466 57.386-160.213 0-217.6L675.52 330.027c-3.307-3.307-3.307-8.747 0-12.054l42.453-42.453c3.307-3.307 8.747-3.307 12.054 0l123.946 123.947c90.134 90.24 90.134 236.266 0 326.506zM616.64 533.013c-3.307 3.307-8.747 3.307-12.053 0l-241.6-241.493c-3.307-3.307-3.307-8.747 0-12.053l42.24-42.24c3.306-3.307 8.746-3.307 12.053 0L658.773 478.72c3.307 3.307 3.307 8.747 0 12.053l-42.133 42.24z"  horiz-adv-x="1024" />

    
    <glyph glyph-name="rili" unicode="&#59151;" d="M810.666667 714.666667h-148.266667v42.666666a21.333333 21.333333 0 1 1-42.666667 0v-42.666666H387.84v42.666666a21.333333 21.333333 0 0 1-42.666667 0v-42.666666H213.333333a106.666667 106.666667 0 0 1-106.666666-106.666667v-512a106.666667 106.666667 0 0 1 106.666666-106.666667h597.333334a106.666667 106.666667 0 0 1 106.666666 106.666667v512a106.666667 106.666667 0 0 1-106.666666 106.666667z m64-618.666667a64 64 0 0 0-64-64H213.333333a64 64 0 0 0-64 64v426.666667h725.333334z m-725.333334 469.333333v42.666667a64 64 0 0 0 64 64h131.84v-42.666667a21.333333 21.333333 0 0 1 42.666667 0v42.666667h231.893333v-42.666667a21.333333 21.333333 0 0 1 42.666667 0v42.666667h149.333333a64 64 0 0 0 64-64v-42.666667zM290.346667 410.24m21.333333 0l42.666667 0q21.333333 0 21.333333-21.333333l0-42.666667q0-21.333333-21.333333-21.333333l-42.666667 0q-21.333333 0-21.333333 21.333333l0 42.666667q0 21.333333 21.333333 21.333333ZM470.4 410.24m21.333333 0l42.666667 0q21.333333 0 21.333333-21.333333l0-42.666667q0-21.333333-21.333333-21.333333l-42.666667 0q-21.333333 0-21.333333 21.333333l0 42.666667q0 21.333333 21.333333 21.333333ZM646.186667 410.24m21.333333 0l42.666667 0q21.333333 0 21.333333-21.333333l0-42.666667q0-21.333333-21.333333-21.333333l-42.666667 0q-21.333333 0-21.333333 21.333333l0 42.666667q0 21.333333 21.333333 21.333333ZM292.48 251.093333m21.333333 0l42.666667 0q21.333333 0 21.333333-21.333333l0-42.666667q0-21.333333-21.333333-21.333333l-42.666667 0q-21.333333 0-21.333333 21.333333l0 42.666667q0 21.333333 21.333333 21.333333ZM472.533333 251.093333m21.333334 0l42.666666 0q21.333333 0 21.333334-21.333333l0-42.666667q0-21.333333-21.333334-21.333333l-42.666666 0q-21.333333 0-21.333334 21.333333l0 42.666667q0 21.333333 21.333334 21.333333ZM648.32 251.093333m21.333333 0l42.666667 0q21.333333 0 21.333333-21.333333l0-42.666667q0-21.333333-21.333333-21.333333l-42.666667 0q-21.333333 0-21.333333 21.333333l0 42.666667q0 21.333333 21.333333 21.333333Z"  horiz-adv-x="1024" />

    
    <glyph glyph-name="time" unicode="&#58923;" d="M511.944649 896C229.154595 895.972324 0 666.734703 0 384 0 101.23762199999999 229.237622-128 512-128S1024 101.23762199999999 1024 384v-0.055351C1024 666.707027 794.762378 895.944649 512 895.944649L511.944649 896z m0-955.807135C266.793514-55.48973000000001 71.624649 146.708757 75.942054 391.804541 80.121081 630.8393510000001 272.882162 823.600432 511.944649 827.807135c245.095784-4.317405 440.32-206.515892 436.002594-451.611676-4.206703-239.034811-196.967784-431.795892-436.002594-436.002594z m221.931243 409.710703h-221.958919v221.875891a17.158919 17.158919 0 0 1-16.992865 17.075892h-34.179459a17.158919 17.158919 0 0 1-17.020541-17.075892v-273.048216a17.158919 17.158919 0 0 1 17.020541-17.103567h273.048216a17.158919 17.158919 0 0 1 17.158919 17.103567V332.79999999999995a17.020541 17.020541 0 0 1-17.158919 17.075892h0.083027z"  horiz-adv-x="1024" />

    
    <glyph glyph-name="dianhua" unicode="&#58881;" d="M419.6 552l-88-89.6c45.8-101.7 143-215 255.7-253.1l76.1 75.8s180.3-31.5 220.8-51.1c35.2-17 46.8-54.8 41.3-101.4-5.8-50.1-71.5-160.5-189.7-161.7-118.2-1.2-292.3 87.9-417 219.2-124.7 131.5-235.9 298.1-218 439.5C118.5 771.1 241.7 796.4 272.5 798.7c31.2 2.3 55.9-6.8 74.7-30.1 24.2-30.1 72.4-216.6 72.4-216.6z"  horiz-adv-x="1024" />

    
    <glyph glyph-name="dongjie" unicode="&#58885;" d="M902.2 561.4H803c-4.2 71.2-33.9 137.6-84.8 188.5C663.1 805 589.9 835.3 512 835.3c-77.9 0-151.1-30.3-206.1-85.4C255 699 225.2 632.6 221 561.4h-99.2c-19.3 0-35-15.7-35-35v-558.7c0-19.3 15.7-35 35-35h780.4c19.3 0 35 15.7 35 35V526.4c0 19.3-15.7 35-35 35zM512 765.3c116.2 0 211.8-90 220.8-203.9H291.2c9 113.9 104.6 203.9 220.8 203.9z m355.2-762.6H156.8V491.4h710.4v-488.7zM472.1 268.5v-145.3c0-20.3 16.4-36.7 36.7-36.7h5.8c20.3 0 36.7 16.4 36.7 36.7V271.5c29.1 15.4 49 46 49 81.2 0 50.7-41.1 91.8-91.8 91.8s-91.8-41.1-91.8-91.8c0-37.7 22.8-70.1 55.4-84.2z"  horiz-adv-x="1024" />

    
    <glyph glyph-name="zujian-icon-14" unicode="&#58884;" d="M893.44 269.312v-249.088H122.88v249.088a51.2 51.2 0 0 1-101.12 0v-290.048a60.416 60.416 0 0 1 60.416-60.16h851.968a60.416 60.416 0 0 1 60.416 60.16V269.312a51.2 51.2 0 0 1-102.4 0z m0 0M543.744 239.36l188.416 188.416a51.2 51.2 0 0 1-71.424 71.68L563.2 400.896V762.624a54.272 54.272 0 1 1-108.544 0v-361.728l-98.56 98.56a51.2 51.2 0 0 1-71.424-71.424l188.416-188.416a51.2 51.2 0 0 1 71.424 0z m0 0"  horiz-adv-x="1024" />

    
    <glyph glyph-name="zujian-icon-13" unicode="&#58883;" d="M893.44 269.312v-249.088H122.88v249.088a51.2 51.2 0 0 1-101.12 0v-290.048a60.416 60.416 0 0 1 60.416-60.16h851.968a60.416 60.416 0 0 1 60.416 60.16V269.312a51.2 51.2 0 0 1-102.4 0z m0 0M472.32 802.048L283.904 614.4a51.2 51.2 0 1 1 71.424-71.424L453.888 640v-360.96a54.272 54.272 0 1 1 108.544 0V640l98.304-98.56A51.2 51.2 0 0 1 732.16 614.4l-188.416 187.648a51.2 51.2 0 0 1-71.424 0z m0 0"  horiz-adv-x="1024" />

    


  </font>
</defs>
</svg>
